<?xml version="1.0" encoding="UTF-8" standalone="no"?><!DOCTYPE svg PUBLIC "-//W3C//DTD SVG 1.1//EN" "http://www.w3.org/Graphics/SVG/1.1/DTD/svg11.dtd"><svg width="100%" height="100%" viewBox="0 0 266 63" version="1.1" xmlns="http://www.w3.org/2000/svg" xmlns:xlink="http://www.w3.org/1999/xlink" xml:space="preserve" xmlns:serif="http://www.serif.com/" style="fill-rule:evenodd;clip-rule:evenodd;stroke-linejoin:round;stroke-miterlimit:2;"><g><path d="M89.746,0.265l0,14.317c0,0 -7.496,9.319 -13.98,18.908c7.698,3.242 13.338,6.684 13.98,7.023c1.958,-2.937 5.222,-7.023 5.222,-7.023c0,0 -2.611,-2.859 -5.222,-5.133c-2.072,2.206 -4.278,5.133 -4.278,5.133c-0.979,-0.607 -2.554,-1.564 -3.624,-2.16c3.332,-5.647 7.902,-10.51 7.902,-10.51c0,0 5.762,7.808 10.985,12.67c-3.287,4.457 -6.663,8.105 -10.985,12.335c-5.628,-4.412 -15.534,-9.269 -22.691,-12.335c3.872,-4.089 14.767,-12.966 22.691,-33.225Z" style="fill:#fc2f70;fill-rule:nonzero;"/><path d="M92.514,16.743c0,0 12.224,11.255 20.8,16.747c-15.488,14.092 -23.568,29.51 -23.568,29.51l0,-11.007c7.743,-7.247 16.342,-17.692 16.927,-18.503c-12.605,-12.02 -14.159,-16.747 -14.159,-16.747Z" style="fill:#fc2f70;fill-rule:nonzero;"/><path d="M26.363,45.547l-0.041,-19.024l-9.43,15.744l-2.378,0l-9.43,-15.498l0,18.778l-5.084,0l0,-28.7l4.387,0l11.398,19.024l11.193,-19.024l4.387,0l0.041,28.7l-5.043,0Z" style="fill:#fff;fill-rule:nonzero;"/><path d="M51.536,35.42l0,10.127l-5.33,0l0,-10.045l-11.275,-18.655l5.699,0l8.405,13.981l8.487,-13.981l5.248,0l-11.234,18.573Z" style="fill:#fff;fill-rule:nonzero;"/><path d="M133.21,21.357l-6.233,0l0,11.439l6.233,0c4.673,0 7.092,-2.132 7.092,-5.74c0,-3.608 -2.419,-5.699 -7.092,-5.699Zm7.215,24.19l-5.863,-8.405c-0.369,0.041 -0.738,0.041 -1.106,0.041l-6.479,0l0,8.364l-5.33,0l0,-28.7l11.809,0c7.543,0 12.217,3.854 12.217,10.209c0,4.346 -2.214,7.544 -6.109,9.061l6.601,9.43l-5.74,0Z" style="fill:#fff;fill-rule:nonzero;"/><path d="M151.371,33.042l0,-16.195l5.33,0l0,15.99c0,5.904 2.665,8.446 7.299,8.446c4.633,0 7.257,-2.542 7.257,-8.446l0,-15.99l5.248,0l0,16.195c0,8.364 -4.715,12.915 -12.546,12.915c-7.872,0 -12.588,-4.551 -12.588,-12.915Z" style="fill:#fff;fill-rule:nonzero;"/><path d="M209.469,16.847l0,28.7l-4.388,0l-15.826,-19.434l0,19.434l-5.289,0l0,-28.7l4.388,0l15.826,19.434l0,-19.434l5.289,0Z" style="fill:#fff;fill-rule:nonzero;"/><path d="M238.701,41.078l0,4.469l-21.525,0l0,-28.7l20.951,0l0,4.469l-15.621,0l0,7.462l13.858,0l0,4.387l-13.858,0l0,7.913l16.195,0Z" style="fill:#fff;fill-rule:nonzero;"/><path d="M242.227,42.513l1.844,-4.141c2.297,1.845 5.946,3.157 9.472,3.157c4.469,0 6.355,-1.599 6.355,-3.731c0,-6.191 -17.056,-2.132 -17.056,-12.792c0,-4.633 3.69,-8.569 11.562,-8.569c3.443,0 7.052,0.902 9.553,2.542l-1.68,4.141c-2.583,-1.517 -5.413,-2.255 -7.914,-2.255c-4.428,0 -6.232,1.722 -6.232,3.895c0,6.109 17.015,2.132 17.015,12.669c0,4.592 -3.731,8.528 -11.603,8.528c-4.469,0 -8.938,-1.394 -11.316,-3.444Z" style="fill:#fff;fill-rule:nonzero;"/></g></svg>